<?xml version="1.0" encoding="utf-8"?><svg viewBox="0 0 1235 700" xmlns="http://www.w3.org/2000/svg" xmlns:xlink="http://www.w3.org/1999/xlink"><style>:root>svg{display:none}:root>svg:target{display:block}</style><svg fill="none" viewBox="0 0 106 97" id="advantages" xmlns="http://www.w3.org/2000/svg"><path d="M80.163 93.394V18.181M102.487 70.77L80.163 93.397 57.84 70.77M25.811 3.193v75.214M3.487 25.817L25.811 3.19l22.324 22.627" stroke="#2D4068" stroke-width="6" stroke-linecap="round" stroke-linejoin="round"/></svg><svg fill="none" viewBox="0 0 120 108" id="advantages2" xmlns="http://www.w3.org/2000/svg"><path d="M70.651 13.12c0-4.674-3.82-8.646-8.989-9.346a14.766 14.766 0 00-3.958 0c-5.17.7-8.99 4.672-8.99 9.345v6.61a42.369 42.369 0 00-8.396 3.112l-5.23-4.676c-3.697-3.304-9.54-3.698-13.748-.925a12.61 12.61 0 00-2.8 2.502c-3.1 3.762-2.66 8.986 1.036 12.29l5.23 4.676a33.47 33.47 0 00-3.482 7.507h-7.392c-5.228 0-9.671 3.415-10.454 8.036a10.577 10.577 0 000 3.539c.783 4.62 5.226 8.037 10.454 8.037h7.393a33.47 33.47 0 003.48 7.506l-5.23 4.675c-3.696 3.305-4.136 8.529-1.034 12.291.787.955 1.73 1.799 2.799 2.503 4.208 2.772 10.051 2.379 13.748-.926l5.23-4.675a42.375 42.375 0 008.396 3.112v6.609c0 4.674 3.82 8.646 8.99 9.345 1.312.178 2.646.178 3.958 0 5.169-.699 8.99-4.671 8.99-9.345v-6.61a42.369 42.369 0 008.396-3.111l5.23 4.675c3.696 3.305 9.54 3.698 13.748.926a12.606 12.606 0 002.799-2.503c3.101-3.762 2.661-8.986-1.035-12.29l-5.23-4.676a33.472 33.472 0 003.481-7.506h7.393c5.228 0 9.671-3.416 10.454-8.037a10.615 10.615 0 000-3.539c-.783-4.62-5.226-8.036-10.454-8.036h-7.393a33.471 33.471 0 00-3.48-7.507l5.229-4.675c3.696-3.305 4.136-8.529 1.035-12.291a12.608 12.608 0 00-2.799-2.502c-4.208-2.773-10.052-2.38-13.748.925l-5.23 4.675a42.375 42.375 0 00-8.397-3.112V13.12z" stroke="#363853" stroke-width="6" stroke-linecap="round" stroke-linejoin="round"/><path d="M44.029 54.02c0-7.728 7.008-13.994 15.654-13.994 8.645 0 15.654 6.266 15.654 13.995 0 7.729-7.009 13.994-15.654 13.994-8.646 0-15.654-6.265-15.654-13.994z" stroke="#363853" stroke-width="6"/></svg><svg fill="none" viewBox="0 0 92 112" id="advantages3" xmlns="http://www.w3.org/2000/svg"><path clip-rule="evenodd" d="M45.987 108.775S88.87 95.79 88.87 59.993c0-35.802 1.554-38.597-1.884-42.04-3.443-3.443-35.377-14.578-41-14.578-5.623 0-37.557 11.135-40.995 14.578-3.443 3.443-1.89 6.238-1.89 42.04 0 35.797 42.885 48.782 42.885 48.782z" stroke="#2D4068" stroke-width="5" stroke-linecap="round" stroke-linejoin="round"/><path d="M31.462 54.38l10.575 10.592 21.79-21.8" stroke="#2D4068" stroke-width="5" stroke-linecap="round" stroke-linejoin="round"/></svg><svg fill="none" viewBox="0 0 129 102" id="advantages4" xmlns="http://www.w3.org/2000/svg"><path d="M42.509 98.11c2.94 0 5.76-1.533 7.839-4.264 2.079-2.73 3.247-6.434 3.247-10.296 0-3.862-1.168-7.566-3.247-10.297-2.08-2.73-4.899-4.265-7.84-4.265-2.94 0-5.76 1.534-7.838 4.265-2.08 2.731-3.247 6.435-3.247 10.297 0 3.862 1.168 7.565 3.247 10.296 2.079 2.73 4.899 4.265 7.839 4.265v0zm55.43 0c2.941 0 5.761-1.533 7.84-4.264 2.079-2.73 3.247-6.434 3.247-10.296 0-3.862-1.168-7.566-3.247-10.297-2.079-2.73-4.899-4.265-7.84-4.265-2.94 0-5.76 1.534-7.838 4.265-2.08 2.731-3.247 6.435-3.247 10.297 0 3.862 1.168 7.565 3.247 10.296 2.079 2.73 4.899 4.265 7.839 4.265v0z" stroke="#2D4068" stroke-width="6" stroke-miterlimit="1.5" stroke-linecap="round" stroke-linejoin="round"/><path d="M53.872 83.55h27.439V7.831c0-1.158-.35-2.27-.975-3.089-.623-.819-1.47-1.28-2.351-1.28H3.707M29.483 83.55H18.119c-.437 0-.87-.113-1.273-.332a3.43 3.43 0 01-1.079-.947 4.644 4.644 0 01-.72-1.418 5.58 5.58 0 01-.254-1.671V43.507" stroke="#2D4068" stroke-width="6" stroke-linecap="round"/><path d="M9.25 25.305h22.172" stroke="#2D4068" stroke-width="6" stroke-linecap="round" stroke-linejoin="round"/><path d="M84.428 26.01l27.979-.705c.643 0 1.272.245 1.811.705.539.46.965 1.115 1.227 1.887l9.922 29.326c.189.557.287 1.16.288 1.77v20.189c0 .573-.086 1.141-.253 1.671a4.638 4.638 0 01-.721 1.418 3.427 3.427 0 01-1.079.946c-.403.22-.836.333-1.273.333h-10.532m-30.487 0h5.543" stroke="#2D4068" stroke-width="6" stroke-linecap="round"/></svg><svg fill="none" viewBox="0 0 24 14" id="arrow-down" xmlns="http://www.w3.org/2000/svg"><path d="M3.297.563l8.215 8.124L19.726.563l3.286 1.625-11.5 11.374L.012 2.188 3.297.562z" fill="#2D4068"/></svg><svg fill="#fff" viewBox="0 0 700 700" id="arrow-down-white" xmlns="http://www.w3.org/2000/svg"><defs><symbol id="fa" overflow="visible"><path d="M29.312-1.75A20.895 20.895 0 0124.578.016c-1.637.406-3.34.609-5.11.609-5.312 0-9.527-1.484-12.64-4.453-3.106-2.969-4.657-7-4.657-12.094s1.55-9.125 4.656-12.094c3.113-2.969 7.328-4.453 12.641-4.453 1.77 0 3.473.199 5.11.594 1.644.398 3.222.992 4.734 1.78v6.595c-1.531-1.04-3.04-1.801-4.516-2.282a14.826 14.826 0 00-4.671-.734c-2.938 0-5.247.945-6.922 2.828-1.68 1.875-2.516 4.465-2.516 7.766 0 3.293.836 5.882 2.516 7.765 1.675 1.875 3.984 2.813 6.922 2.813 1.632 0 3.19-.239 4.671-.719 1.477-.488 2.985-1.254 4.516-2.297z"/></symbol><symbol id="fb" overflow="visible"><path d="M21.453-17.406c-.68-.313-1.352-.54-2.016-.688a8.556 8.556 0 00-1.984-.234c-1.969 0-3.484.633-4.547 1.89-1.055 1.262-1.578 3.071-1.578 5.423V0H3.672v-23.922h7.656V-20c.977-1.563 2.102-2.704 3.375-3.422 1.281-.72 2.813-1.078 4.594-1.078.25 0 .523.011.828.03.3.024.734.071 1.297.141z"/></symbol><symbol id="fc" overflow="visible"><path d="M27.562-12.031v2.188H9.671c.188 1.792.832 3.136 1.938 4.03 1.113.9 2.671 1.344 4.671 1.344 1.602 0 3.25-.234 4.938-.703 1.687-.476 3.422-1.203 5.203-2.172v5.891A31.913 31.913 0 0120.999.094a28.432 28.432 0 01-5.422.531c-4.336 0-7.703-1.097-10.109-3.297-2.398-2.207-3.594-5.297-3.594-9.265 0-3.906 1.176-6.973 3.532-9.203 2.363-2.239 5.609-3.36 9.734-3.36 3.758 0 6.77 1.137 9.031 3.406 2.258 2.262 3.39 5.282 3.39 9.063zm-7.86-2.531c0-1.457-.43-2.63-1.28-3.516-.844-.894-1.95-1.344-3.313-1.344-1.492 0-2.7.418-3.625 1.25-.918.836-1.492 2.04-1.719 3.61z"/></symbol><symbol id="fd" overflow="visible"><path d="M14.391-10.766c-1.594 0-2.793.273-3.594.813-.804.542-1.203 1.34-1.203 2.39 0 .969.32 1.73.969 2.281.644.543 1.547.813 2.703.813 1.437 0 2.644-.516 3.625-1.547.988-1.031 1.484-2.32 1.484-3.875v-.875zm11.688-2.89V-.002h-7.703v-3.547c-1.031 1.45-2.188 2.508-3.469 3.172s-2.84 1-4.672 1c-2.48 0-4.496-.722-6.047-2.172-1.543-1.445-2.312-3.32-2.312-5.625 0-2.812.96-4.867 2.89-6.171 1.938-1.313 4.97-1.97 9.094-1.97h4.516v-.609c0-1.207-.48-2.093-1.438-2.656-.949-.562-2.437-.844-4.468-.844-1.637 0-3.157.168-4.563.5a15.698 15.698 0 00-3.937 1.47v-5.829a41.147 41.147 0 014.937-.906 39.87 39.87 0 014.953-.313c4.32 0 7.438.856 9.344 2.563 1.914 1.7 2.875 4.46 2.875 8.281z"/></symbol><symbol id="fe" overflow="visible"><path d="M12.031-30.719v6.797h7.875v5.469h-7.875v10.14c0 1.118.219 1.872.656 2.266.438.387 1.313.578 2.625.578h3.938v5.47h-6.563C9.664 0 7.523-.63 6.265-1.89c-1.261-1.258-1.89-3.399-1.89-6.422v-10.141H.578v-5.47h3.797v-6.796z"/></symbol><symbol id="ff" overflow="visible"><path d="M19.953-20.422v-12.812h7.688V0h-7.688v-3.453c-1.055 1.406-2.215 2.437-3.484 3.094-1.274.656-2.743.984-4.407.984-2.949 0-5.37-1.172-7.265-3.516C2.91-5.234 1.969-8.25 1.969-11.937s.941-6.704 2.828-9.047C6.69-23.328 9.113-24.5 12.062-24.5c1.657 0 3.118.336 4.391 1 1.281.656 2.445 1.684 3.5 3.078zM14.906-4.938c1.645 0 2.895-.598 3.75-1.797.863-1.195 1.297-2.93 1.297-5.203 0-2.281-.434-4.02-1.297-5.219-.855-1.195-2.105-1.797-3.75-1.797-1.625 0-2.871.602-3.734 1.797-.856 1.2-1.282 2.938-1.282 5.219 0 2.273.426 4.008 1.282 5.203.863 1.2 2.11 1.797 3.734 1.797z"/></symbol><symbol id="fg" overflow="visible"><path d="M16.406-4.938c1.633 0 2.883-.597 3.75-1.796.863-1.196 1.297-2.93 1.297-5.204 0-2.28-.434-4.019-1.297-5.218-.867-1.196-2.117-1.797-3.75-1.797-1.637 0-2.89.605-3.766 1.812-.875 1.2-1.312 2.934-1.312 5.203 0 2.262.437 3.996 1.312 5.203.875 1.2 2.13 1.797 3.766 1.797zM11.328-20.42c1.05-1.395 2.219-2.422 3.5-3.079 1.281-.664 2.754-1 4.422-1 2.945 0 5.367 1.172 7.265 3.516 1.895 2.344 2.844 5.36 2.844 9.047s-.949 6.703-2.844 9.047C24.617-.546 22.195.625 19.25.625c-1.668 0-3.14-.336-4.422-1s-2.45-1.691-3.5-3.078V0H3.672v-33.234h7.656z"/></symbol><symbol id="fh" overflow="visible"><path d="M.531-23.922h7.656L14.61-7.688l5.47-16.234h7.655L17.672 2.266c-1.011 2.664-2.195 4.523-3.547 5.578-1.343 1.063-3.12 1.594-5.328 1.594H4.375V4.422h2.391c1.3 0 2.242-.21 2.828-.625.594-.406 1.055-1.148 1.39-2.219l.204-.656z"/></symbol><symbol id="fi" overflow="visible"><path d="M.656-23.922h7.656l5.954 16.531 5.937-16.531h7.672L18.453 0h-8.39z"/></symbol><symbol id="fj" overflow="visible"><path d="M23-23.172v6.234c-1.031-.718-2.074-1.242-3.125-1.578a10.31 10.31 0 00-3.25-.515c-2.137 0-3.805.625-5 1.875-1.188 1.242-1.781 2.98-1.781 5.218 0 2.231.594 3.97 1.781 5.22 1.195 1.25 2.863 1.874 5 1.874 1.195 0 2.332-.175 3.406-.531A10.2 10.2 0 0023-6.969v6.266a21.168 21.168 0 01-3.64.984c-1.231.227-2.465.344-3.704.344-4.312 0-7.687-1.11-10.125-3.328S1.875-8 1.875-11.938c0-3.945 1.219-7.023 3.656-9.234C7.97-23.39 11.344-24.5 15.656-24.5c1.25 0 2.485.11 3.703.328s2.43.555 3.641 1z"/></symbol><symbol id="fk" overflow="visible"><path d="M3.672-33.234h7.656V0H3.672z"/></symbol></defs><path d="M115.88 130.71c-8.234 0-16.59 3.203-22.836 9.45-12.504 12.503-12.504 33.18 0 45.683l233.98 233.98c6.04 6.04 14.559 9.45 22.836 9.45 8.2 0 16.371-2.985 22.836-9.45l233.66-233.68c13.09-12.32 13.258-33.484.754-45.988s-33.18-12.504-45.684 0l-.008.008-211.14 211.56-211.57-211.57c-6.258-6.258-14.613-9.45-22.836-9.45z"/><use x="70" y="691.25" xlink:href="#fa"/><use x="102.109" y="691.25" xlink:href="#fb"/><use x="123.684" y="691.25" xlink:href="#fc"/><use x="153.355" y="691.25" xlink:href="#fd"/><use x="182.879" y="691.25" xlink:href="#fe"/><use x="203.793" y="691.25" xlink:href="#fc"/><use x="233.465" y="691.25" xlink:href="#ff"/><use x="280.012" y="691.25" xlink:href="#fg"/><use x="311.328" y="691.25" xlink:href="#fh"/><use x="355.078" y="691.25" xlink:href="#fi"/><use x="383.598" y="691.25" xlink:href="#fc"/><use x="413.27" y="691.25" xlink:href="#fj"/><use x="439.203" y="691.25" xlink:href="#fe"/><use x="460.117" y="691.25" xlink:href="#fk"/><use x="475.113" y="691.25" xlink:href="#fd"/><use x="504.637" y="691.25" xlink:href="#fg"/></svg><svg fill="none" viewBox="0 0 26 23" id="arrow-next" xmlns="http://www.w3.org/2000/svg"><path fill-rule="evenodd" clip-rule="evenodd" d="M.28 11.805a1.578 1.578 0 011.577-1.578H20.14l-6.775-6.772a1.58 1.58 0 012.234-2.234l9.468 9.467a1.576 1.576 0 010 2.235l-9.468 9.467a1.58 1.58 0 11-2.234-2.234l6.775-6.773H1.857A1.578 1.578 0 01.28 11.805z" fill="#fff"/></svg><svg fill="none" viewBox="0 0 18 28" id="arrow-right" xmlns="http://www.w3.org/2000/svg"><path d="M17.03 4L6.403 14 17.03 24l-2.125 4L.03 14 14.904 0l2.125 4z" fill="#fff"/></svg><svg fill="none" viewBox="0 0 20 21" id="calendar" xmlns="http://www.w3.org/2000/svg"><path d="M1.572 8.074h16.662M14.054 11.725h.008M9.903 11.725h.009M5.747 11.725h.009M14.054 15.358h.008M9.903 15.358h.009M5.747 15.358h.009M13.68 1.152V4.23M6.128 1.152V4.23" stroke="#888" stroke-width="1.5" stroke-linecap="round" stroke-linejoin="round"/><path clip-rule="evenodd" d="M13.861 2.629H5.946c-2.745 0-4.46 1.53-4.46 4.34v8.46c0 2.855 1.715 4.42 4.46 4.42h7.907c2.754 0 4.46-1.539 4.46-4.35V6.97c.008-2.81-1.698-4.34-4.452-4.34z" stroke="#888" stroke-width="1.5" stroke-linecap="round" stroke-linejoin="round"/></svg><svg fill="none" viewBox="0 0 45 43" id="email" xmlns="http://www.w3.org/2000/svg"><path d="M3.024 28.556l1.457-.356-1.457.356zm0-13.655l-1.457-.357 1.457.357zm38.933 0l1.457-.357-1.457.357zm0 13.655l1.457.357-1.457-.357zM29.145 40.49l-.33-1.464.33 1.464zm-13.308 0l.329-1.464-.33 1.464zm0-37.523l-.33-1.463.33 1.463zm13.308 0l-.33 1.464.33-1.464zM14.867 40.272l-.329 1.463.33-1.463zm15.247 0l.33 1.463-.33-1.463zm0-37.087l.33-1.463-.33 1.463zm-15.247 0l.33 1.464-.33-1.464zM6.931 8.598a1.5 1.5 0 10-1.761 2.43l1.76-2.43zM18.395 18.76l-.88 1.215.88-1.215zm8.191 0l.88 1.215-.88-1.215zm13.225-7.733a1.5 1.5 0 00-1.76-2.429l1.76 2.43zM15.196 4.65l.97-.218-.658-2.927-.97.218.658 2.927zm13.62-.218l.97.218.657-2.927-.97-.218-.657 2.927zm.97 34.377l-.97.218.658 2.927.97-.218-.659-2.927zm-13.62.218l-.97-.218-.658 2.927.97.218.658-2.927zM4.48 28.2a27.23 27.23 0 010-12.943l-2.914-.713a30.23 30.23 0 000 14.369l2.914-.713zm36.02-12.943a27.23 27.23 0 010 12.943l2.913.713a30.23 30.23 0 000-14.369l-2.914.713zm-11.685 23.77a28.828 28.828 0 01-12.65 0l-.658 2.926a31.83 31.83 0 0013.966 0l-.658-2.927zM16.166 4.43a28.83 28.83 0 0112.65 0l.658-2.927a31.83 31.83 0 00-13.966 0l.658 2.927zm-.97 34.377C9.942 37.628 5.785 33.525 4.481 28.2l-2.914.713c1.57 6.413 6.588 11.387 12.971 12.822l.658-2.927zm15.247 2.927c6.384-1.435 11.401-6.409 12.971-12.822L40.5 28.2c-1.303 5.325-5.46 9.427-10.715 10.608l.658 2.927zM29.785 4.65c5.254 1.18 9.412 5.283 10.715 10.608l2.914-.713c-1.57-6.413-6.587-11.387-12.97-12.822l-.659 2.927zM14.538 1.722C8.155 3.157 3.137 8.13 1.568 14.544l2.913.713C5.785 9.932 9.942 5.83 15.196 4.65l-.658-2.927zM5.17 11.027l12.345 8.948 1.76-2.43L6.932 8.599l-1.761 2.43zm22.296 8.948l12.345-8.948-1.76-2.429-12.345 8.948 1.76 2.429zm-9.95 0a8.463 8.463 0 009.95 0l-1.76-2.43a5.463 5.463 0 01-6.43 0l-1.76 2.43z" fill="#fff"/></svg><svg fill="none" viewBox="0 0 31 30" id="facebook" xmlns="http://www.w3.org/2000/svg"><g clip-path="url(#kclip0_248_333)"><path fill-rule="evenodd" clip-rule="evenodd" d="M.53 15.084C.53 22.54 5.945 28.743 13.03 30V19.166H9.28V15h3.75v-3.334c0-3.75 2.415-5.832 5.833-5.832 1.082 0 2.25.166 3.332.332V10H20.28c-1.834 0-2.25.916-2.25 2.084V15h4l-.666 4.166h-3.334V30c7.084-1.258 12.5-7.457 12.5-14.916C30.53 6.788 23.78 0 15.53 0s-15 6.787-15 15.084z" fill="#fff"/></g><defs><clipPath id="kclip0_248_333"><path fill="#fff" transform="translate(.53)" d="M0 0h30v30H0z"/></clipPath></defs></svg><svg fill="none" viewBox="0 0 32 30" id="instagram" xmlns="http://www.w3.org/2000/svg"><path fill-rule="evenodd" clip-rule="evenodd" d="M9.64.09C11.291.016 11.818 0 16.03 0c4.21 0 4.737.018 6.388.09 1.652.072 2.779.327 3.765.697a7.654 7.654 0 012.745 1.732 7.308 7.308 0 011.787 2.655c.383.954.645 2.045.721 3.64.076 1.603.093 2.113.093 6.186 0 4.075-.018 4.584-.093 6.184-.074 1.595-.338 2.686-.721 3.641a7.339 7.339 0 01-1.787 2.658 7.627 7.627 0 01-2.745 1.729c-.986.37-2.113.624-3.762.698-1.654.074-2.181.09-6.392.09-4.21 0-4.737-.018-6.39-.09-1.649-.072-2.776-.327-3.762-.698a7.634 7.634 0 01-2.747-1.73 7.335 7.335 0 01-1.788-2.656c-.382-.954-.644-2.045-.72-3.64C.546 19.582.53 19.073.53 15c0-4.075.019-4.585.093-6.183.075-1.598.338-2.689.72-3.643.39-1.001 1.001-1.908 1.79-2.657A7.627 7.627 0 015.875.787C6.862.417 7.99.164 9.638.09h.001zm12.653 2.7c-1.635-.072-2.125-.087-6.264-.087-4.138 0-4.629.015-6.263.087-1.512.067-2.332.31-2.879.517a4.832 4.832 0 00-1.782 1.12 4.64 4.64 0 00-1.159 1.726c-.212.529-.465 1.322-.534 2.786-.074 1.582-.09 2.056-.09 6.061s.016 4.48.09 6.061c.07 1.463.322 2.257.534 2.786.248.65.644 1.241 1.159 1.725.5.498 1.11.881 1.782 1.121.547.206 1.367.45 2.879.517 1.634.072 2.123.087 6.263.087s4.63-.015 6.264-.087c1.512-.067 2.332-.31 2.879-.517a4.832 4.832 0 001.782-1.12 4.645 4.645 0 001.158-1.726c.213-.529.465-1.323.534-2.786.075-1.581.09-2.056.09-6.061s-.015-4.48-.09-6.061c-.069-1.464-.321-2.257-.534-2.786-.282-.7-.615-1.2-1.158-1.725-.5-.498-1.11-.88-1.782-1.121-.547-.206-1.367-.45-2.88-.517zM14.05 19.624a5.332 5.332 0 003.483.17 5.16 5.16 0 002.802-2.01 4.88 4.88 0 00.846-3.273 4.938 4.938 0 00-1.495-3.05 5.197 5.197 0 00-1.915-1.172 5.333 5.333 0 00-4.4.42 5.104 5.104 0 00-1.64 1.512 4.91 4.91 0 00-.816 2.045 4.852 4.852 0 00.166 2.187c.222.708.603 1.36 1.117 1.908.513.548 1.145.98 1.851 1.263zM10.396 9.548a7.99 7.99 0 012.584-1.671 8.198 8.198 0 016.098 0 7.989 7.989 0 012.585 1.671 7.7 7.7 0 011.727 2.502 7.494 7.494 0 010 5.9 7.699 7.699 0 01-1.727 2.502 8.104 8.104 0 01-5.634 2.258 8.104 8.104 0 01-5.633-2.258A7.586 7.586 0 018.062 15c0-2.045.84-4.006 2.334-5.452zm15.367-1.11c.184-.167.33-.368.432-.592a1.774 1.774 0 00-.392-2.023 1.89 1.89 0 00-.624-.4 1.939 1.939 0 00-1.467.02c-.231.098-.439.24-.612.418-.336.345-.52.803-.513 1.278.007.474.205.927.551 1.262.347.336.815.527 1.305.534.49.007.964-.171 1.32-.497z" fill="#fff"/></svg><svg fill="none" viewBox="0 0 39 46" id="location" xmlns="http://www.w3.org/2000/svg"><path clip-rule="evenodd" d="M25.407 19.64a5.916 5.916 0 10-11.833-.002 5.916 5.916 0 0011.833.002z" stroke="#fff" stroke-width="3" stroke-linecap="round" stroke-linejoin="round"/><path clip-rule="evenodd" d="M19.489 44.489c-2.837 0-17.75-12.074-17.75-24.7 0-9.885 7.946-17.9 17.75-17.9 9.803 0 17.75 8.015 17.75 17.9 0 12.626-14.914 24.7-17.75 24.7z" stroke="#fff" stroke-width="3" stroke-linecap="round" stroke-linejoin="round"/></svg><svg fill="none" viewBox="0 0 132 118" id="play" xmlns="http://www.w3.org/2000/svg"><path d="M49.625 41.872v34.263c0 3.733 3.995 6.098 7.27 4.31L88.245 63.31a4.912 4.912 0 000-8.62L56.895 37.555a4.913 4.913 0 00-7.27 4.317zM21.788.05A21.287 21.287 0 00.5 21.337v75.325a21.288 21.288 0 0021.288 21.288h88.425a21.285 21.285 0 0015.052-6.235 21.298 21.298 0 006.235-15.053V21.337A21.288 21.288 0 00110.213.05H21.788zM10.325 21.337c0-6.327 5.135-11.462 11.463-11.462h88.425c6.327 0 11.462 5.135 11.462 11.462v75.325a11.465 11.465 0 01-11.462 11.463H21.788a11.465 11.465 0 01-11.463-11.463V21.337z" fill="#fff"/></svg><svg viewBox="0 0 9 6" id="russia-flag" xmlns="http://www.w3.org/2000/svg"><path fill="#fff" d="M0 0h9v3H0z"/><path fill="#d52b1e" d="M0 3h9v3H0z"/><path fill="#0039a6" d="M0 2h9v2H0z"/></svg><svg fill="none" viewBox="0 0 28 29" id="search" xmlns="http://www.w3.org/2000/svg"><path d="M11.948 24.332c2.61 0 5.143-.874 7.199-2.481l6.462 6.462 2.078-2.079-6.462-6.462a11.69 11.69 0 002.483-7.2c0-6.485-5.276-11.76-11.76-11.76C5.463.812.188 6.087.188 12.572c0 6.484 5.275 11.76 11.76 11.76zm0-20.58c4.864 0 8.82 3.955 8.82 8.82 0 4.864-3.956 8.82-8.82 8.82-4.865 0-8.82-3.956-8.82-8.82 0-4.865 3.955-8.82 8.82-8.82z" fill="#2D4068"/></svg><svg fill="none" viewBox="0 0 43 43" id="tel" xmlns="http://www.w3.org/2000/svg"><path d="M28.367 40.489c1.915.337 3.884.337 5.799 0 3.078-.543 5.558-2.61 6.412-5.344l.18-.58a6.213 6.213 0 00.285-1.854c0-2.764-2.472-5.004-5.52-5.004H27.01c-3.05 0-5.52 2.24-5.52 5.004 0 .627.095 1.25.283 1.854l.181.58c.854 2.735 3.334 4.801 6.412 5.344zm0 0A32.676 32.676 0 012.19 14.313m0 0a16.735 16.735 0 010-5.8C2.733 5.435 4.8 2.956 7.535 2.102l.58-.181a6.213 6.213 0 011.853-.284c2.764 0 5.005 2.471 5.005 5.52v8.512c0 3.049-2.24 5.52-5.005 5.52-.626 0-1.25-.095-1.853-.284l-.58-.18C4.8 19.87 2.733 17.39 2.19 14.312z" stroke="#fff" stroke-width="3"/></svg><svg fill="none" viewBox="0 0 32 30" id="telegramsvg" xmlns="http://www.w3.org/2000/svg"><path d="M30.24.584a2.241 2.241 0 00-1.113-.55 2.167 2.167 0 00-1.22.137L1.486 11.26a2.303 2.303 0 00-1.118.986 2.55 2.55 0 00-.328 1.507c.043.528.245 1.026.575 1.42.33.395.771.664 1.257.768l6.713 1.422v8.964c0 .485.134.96.386 1.362.253.403.611.717 1.03.902.278.12.575.182.874.184.3 0 .599-.062.876-.186a2.26 2.26 0 00.741-.533l3.721-3.962 5.625 5.293c.416.391.95.608 1.503.611.244.006.486-.036.716-.122.378-.128.718-.358.986-.67a2.49 2.49 0 00.545-1.104L30.97 2.985a2.61 2.61 0 00-.053-1.309A2.466 2.466 0 0030.24.584zM9.458 15.054L2.33 13.54l19.98-8.398-12.852 9.913zm1.417 11.274v-7.25l3.607 3.396-3.607 3.854zm12.48 1.224l-11.793-11.09 16.99-13.11-5.196 24.2z" fill="#fff"/></svg><svg fill="none" viewBox="0 0 41 39" id="time" xmlns="http://www.w3.org/2000/svg"><path d="M2.5 25.948l1.457-.362-1.456.362zm0-12.44l1.457.362-1.456-.362zm35.98 0l1.455-.361-1.455.361zm0 12.44l-1.456-.362 1.456.362zm-11.84 10.87l-.325-1.464.324 1.464zm-12.299 0l.325-1.464-.325 1.464zm0-34.18l.325 1.464-.325-1.464zm12.298 0l.325-1.465-.325 1.465zM13.445 36.619l-.324 1.465.324-1.465zm14.09 0l.325 1.465-.325-1.465zm0-33.783l-.324 1.465.324-1.465zm-14.09 0l-.324-1.464.324 1.464zm.32 12.415a1.5 1.5 0 10-1.743 2.441l1.744-2.44zm4.202 4.845l.872-1.22-.872 1.22zm5.046 0l.872 1.22-.872-1.22zm5.946-2.404a1.5 1.5 0 00-1.744-2.44l1.744 2.44zM13.769 4.301l.897-.199-.65-2.929-.895.199.649 2.929zm12.546-.199l.896.199.649-2.929-.896-.199-.65 2.93zm.896 31.053l-.896.199.649 2.928.896-.198-.65-2.929zm-12.545.199l-.896-.199-.65 2.929.897.198.649-2.928zm-10.71-9.768a24.308 24.308 0 010-11.716l-2.91-.723a27.308 27.308 0 000 13.162l2.91-.723zM37.025 13.87a24.31 24.31 0 010 11.716l2.911.723a27.31 27.31 0 000-13.162l-2.911.723zm-10.71 21.484c-3.836.85-7.812.85-11.648 0l-.65 2.928c4.265.945 8.684.945 12.948 0l-.65-2.928zM14.667 4.102c3.836-.85 7.812-.85 11.649 0l.649-2.929a29.924 29.924 0 00-12.947 0l.649 2.93zm-.896 31.053a13.012 13.012 0 01-9.813-9.569l-2.912.723a16.012 16.012 0 0012.076 11.775l.649-2.929zm14.09 2.929a16.012 16.012 0 0012.075-11.775l-2.911-.723a13.012 13.012 0 01-9.813 9.57l.649 2.928zm-.65-33.783a13.012 13.012 0 019.814 9.569l2.911-.723A16.012 16.012 0 0027.86 1.372l-.65 2.929zM13.12 1.372A16.012 16.012 0 001.046 13.147l2.912.723A13.012 13.012 0 0113.77 4.3l-.65-2.928zm-1.098 16.32l5.073 3.625 1.744-2.441-5.073-3.625-1.744 2.441zm11.863 3.625l5.074-3.625-1.744-2.44-5.074 3.624 1.744 2.44zm-6.79 0a5.84 5.84 0 006.79 0l-1.744-2.441a2.84 2.84 0 01-3.302 0l-1.744 2.44z" fill="#fff"/></svg><svg viewBox="0 0 7410 3900" id="usa-flag" xmlns="http://www.w3.org/2000/svg"><path fill="#b22234" d="M0 0h7410v3900H0z"/><path d="M0 450h7410m0 600H0m0 600h7410m0 600H0m0 600h7410m0 600H0" stroke="#fff" stroke-width="300"/><path fill="#3c3b6e" d="M0 0h2964v2100H0z"/><g fill="#fff"><g id="td"><g id="tc"><g id="te"><g id="tb"><path id="ta" d="M247 90l70.534 217.082-184.66-134.164h228.253L176.466 307.082z"/><use xlink:href="#ta" y="420"/><use xlink:href="#ta" y="840"/><use xlink:href="#ta" y="1260"/></g><use xlink:href="#ta" y="1680"/></g><use xlink:href="#tb" x="247" y="210"/></g><use xlink:href="#tc" x="494"/></g><use xlink:href="#td" x="988"/><use xlink:href="#tc" x="1976"/><use xlink:href="#te" x="2470"/></g></svg><svg viewBox="0 0 1000 500" id="uzbekistan-flag" xmlns="http://www.w3.org/2000/svg"><path fill="#1eb53a" d="M0 0h1000v500H0z"/><path fill="#0099b5" d="M0 0h1000v250H0z"/><path fill="#ce1126" d="M0 160h1000v180H0z"/><path fill="#fff" d="M0 170h1000v160H0z"/><circle cx="140" cy="80" r="60" fill="#fff"/><circle cx="160" cy="80" r="60" fill="#0099b5"/><g transform="matrix(2 0 0 2 272 128)" fill="#fff"><g id="ue"><g id="ud"><g id="uc"><g id="ub"><path id="ua" d="M0-6v6h3" transform="rotate(18 0 -6)"/><use xlink:href="#ua" transform="scale(-1 1)" width="100%" height="100%"/></g><use xlink:href="#ub" transform="rotate(72)" width="100%" height="100%"/></g><use xlink:href="#ub" transform="rotate(-72)" width="100%" height="100%"/><use xlink:href="#uc" transform="rotate(144)" width="100%" height="100%"/></g><use xlink:href="#ud" y="-24" width="100%" height="100%"/><use xlink:href="#ud" y="-48" width="100%" height="100%"/></g><use xlink:href="#ue" x="24" width="100%" height="100%"/><use xlink:href="#ue" x="48" width="100%" height="100%"/><use xlink:href="#ud" x="-48" width="100%" height="100%"/><use xlink:href="#ud" x="-24" width="100%" height="100%"/><use xlink:href="#ud" x="-24" y="-24" width="100%" height="100%"/></g></svg></svg>